<svg width="800" height="618" viewBox="0 0 800 618" fill="none" xmlns="http://www.w3.org/2000/svg">
<g clip-path="url(#clip0_1448_11374)">
<rect width="800" height="618" fill="#DEE6ED"/>
<g opacity="0.03">
<path d="M429.54 -498L500.251 -427.289L-389.289 462.251L-460 391.54L429.54 -498Z" fill="black"/>
<path d="M570.962 -356.579L641.672 -285.868L-247.868 603.672L-318.579 532.962L570.962 -356.579Z" fill="black"/>
<path d="M712.383 -215.157L783.094 -144.447L-106.447 745.094L-177.157 674.383L712.383 -215.157Z" fill="black"/>
<path d="M853.804 -73.7359L924.515 -3.02526L34.9747 886.515L-35.736 815.804L853.804 -73.7359Z" fill="black"/>
<path d="M995.226 67.6854L1065.94 138.396L176.396 1027.94L105.685 957.226L995.226 67.6854Z" fill="black"/>
<path d="M1136.65 209.107L1207.36 279.817L317.817 1169.36L247.107 1098.65L1136.65 209.107Z" fill="black"/>
<path d="M1278.07 350.528L1348.78 421.239L459.239 1310.78L388.528 1240.07L1278.07 350.528Z" fill="black"/>
</g>
<path fill-rule="evenodd" clip-rule="evenodd" d="M510.713 432.549C512.357 434.207 514.519 435.036 516.678 435.036C518.818 435.036 520.958 434.224 522.594 432.596C525.89 429.328 525.913 424.009 522.644 420.715L368.64 265.451C368.591 265.4 368.541 265.349 368.491 265.299C368.473 265.281 368.455 265.264 368.437 265.247L289.287 185.448C286.019 182.155 280.697 182.132 277.403 185.401C274.11 188.669 274.087 193.991 277.356 197.282L307.112 227.281H305.789C288.242 227.281 273.964 241.646 273.964 259.3V367.657C273.964 385.313 288.242 399.676 305.789 399.676H478.107L510.713 432.549ZM351.129 271.659L323.389 243.692C321.791 243.954 320.171 244.086 318.539 244.086H305.789C297.508 244.086 290.769 250.911 290.769 259.3V367.657C290.769 376.046 297.508 382.871 305.789 382.871H461.438L437.024 358.257C426.423 366.376 413.548 370.769 400 370.769C366.18 370.769 338.665 343.058 338.665 309C338.665 295.336 343.043 282.347 351.129 271.659ZM425.053 346.188L363.133 283.761C358.149 291.148 355.47 299.866 355.47 309C355.47 333.795 375.445 353.964 400 353.964C409.068 353.964 417.724 351.244 425.053 346.188ZM491.412 266.218C491.412 271.144 487.451 275.138 482.565 275.138C477.678 275.138 473.717 271.144 473.717 266.218C473.717 261.291 477.678 257.297 482.565 257.297C487.451 257.297 491.412 261.291 491.412 266.218ZM513.186 389.898C511.491 389.898 509.777 389.386 508.293 388.321C504.523 385.616 503.663 380.364 506.369 376.595C508.24 373.987 509.231 370.898 509.231 367.657V259.3C509.231 250.911 502.492 244.086 494.21 244.086H481.461C470.306 244.086 460.114 237.935 454.865 228.032L451.014 220.775C447.723 214.568 441.359 210.714 434.397 210.714H365.603C360.119 210.714 354.918 213.123 351.333 217.321C348.32 220.85 343.021 221.271 339.489 218.257C335.96 215.243 335.54 209.941 338.553 206.412C345.334 198.466 355.196 193.91 365.606 193.91H434.402C447.6 193.91 459.657 201.189 465.864 212.905L469.715 220.161C472.042 224.553 476.543 227.281 481.464 227.281H494.213C511.758 227.281 526.036 241.646 526.036 259.3V367.657C526.036 374.435 523.955 380.913 520.02 386.395C518.379 388.68 515.802 389.898 513.186 389.898ZM450.375 327.491C450.91 327.592 451.442 327.645 451.969 327.645C455.918 327.642 459.439 324.847 460.214 320.825C460.959 316.943 461.338 312.963 461.338 308.997C461.338 274.937 433.822 247.228 400.003 247.228C395.872 247.228 391.746 247.646 387.735 248.466C383.19 249.399 380.257 253.835 381.19 258.384C382.122 262.93 386.562 265.865 391.107 264.929C394.009 264.333 397.003 264.033 400.003 264.033C424.555 264.033 444.533 284.205 444.533 308.997C444.533 311.899 444.255 314.812 443.709 317.652C442.835 322.209 445.818 326.614 450.375 327.491Z" fill="#62727D"/>
</g>
<defs>
<clipPath id="clip0_1448_11374">
<rect width="800" height="618" fill="white"/>
</clipPath>
</defs>
</svg>
